# xmcd
#
# Track frame offsets:
#	150
#	16897
#	38074
#	60101
#	78488
#	99215
#	118477
#	141664
#	173061
#	188693
#	210485
#
# Disc length: 3162 seconds
#
# Revision: 0
# Processed by: cddbd v1.5PL3 Copyright (c) Steve Scherf et al.
# Submitted via: dBpowerAMP V4.0
#
DISCID=8b0c580b
DTITLE=Shawn Colvin - Austin City Limits 2001
DYEAR=2001
DGENRE=Country
TTITLE0=Anywhere You Go
TTITLE1=Bonefields
TTITLE2=Whole New You
TTITLE3=Maybe
TTITLE4=Shotgun Down The Avalanche
TTITLE5=Bound To You
TTITLE6=The Road To Ensenada
TTITLE7=Across The Great Divide
TTITLE8=ONe Small Year
TTITLE9=Sunny Came Home
TTITLE10=Diamond In tThe Rough
EXTD=
EXTT0=
EXTT1=
EXTT2=
EXTT3=
EXTT4=
EXTT5=
EXTT6=
EXTT7=
EXTT8=
EXTT9=
EXTT10=
PLAYORDER=
